<?xml version="1.0" encoding="UTF-8"?>
<svg id="Layer_1" data-name="Layer 1" xmlns="http://www.w3.org/2000/svg" viewBox="0 0 46.15 46.15">
  <defs>
    <style>
      .cls-1 {
        fill: #1c232b;
      }
      .cls-2 {
        fill: #cce1ff;
      }
    </style>
  </defs>
  <circle class="cls-1" cx="23.07" cy="23.07" r="23.07"/>
  <path class="cls-2" d="M32.71,10.15H13.44c-2.27,0-4.12,1.85-4.12,4.12v11.9c0,7.34,5.98,13.32,13.32,13.32h.87c7.34,0,13.32-5.98,13.32-13.32v-11.9c0-2.27-1.85-4.12-4.12-4.12ZM23.51,36.04h-.87c-5.44,0-9.87-4.43-9.87-9.87v-6.02h4.74v6.51c0,3.07,2.5,5.57,5.57,5.57s5.57-2.5,5.57-5.57v-6.51h4.74v6.02c0,5.44-4.43,9.87-9.87,9.87ZM25.2,16.7v9.95c0,1.17-.95,2.12-2.13,2.12s-2.12-.95-2.12-2.12v-9.95h-8.19v-2.43c0-.37.3-.68.68-.68h19.27c.37,0,.68.3.68.68v2.43h-8.19Z"/>
</svg>
